<svg width="93" height="103" viewBox="0 0 93 103" fill="none" xmlns="http://www.w3.org/2000/svg">
<path d="M17.8159 13.4378C23.872 10.3832 29.7559 6.99859 35.4411 3.29921C44.0308 -2.45069 48.7246 0.295192 47.598 4.12063C46.4715 7.94608 53.7234 34.8415 64.6834 49.1107C75.6435 63.3798 74.6578 47.0689 82.9189 44.2761C91.1799 41.4833 95.6625 49.6739 89.3024 59.1084C82.9423 68.543 68.6262 65.7032 66.7487 59.9064C64.8712 54.1095 51.4 28.6692 47.4338 22.5203C43.4675 16.3714 40.3931 16.653 33.3524 23.858C30.2667 27.1035 26.4232 29.5317 22.1671 30.9245C17.9109 32.3172 13.3755 32.631 8.9681 31.8375C8.9681 31.8375 23.6597 60.0941 28.1657 69.1297C32.6718 78.1653 36.4268 89.7589 43.1155 89.5242C49.8041 89.2896 57.1968 76.053 62.5947 84.2202C67.9926 92.3874 52.0571 105.929 43.5614 102.057C35.0656 98.1843 29.8085 80.3713 23.5189 68.0501C17.2292 55.7289 -1.07663 23.3182 0.0498793 18.7653C1.17639 14.2123 9.64869 18.7653 17.8159 13.4378Z" fill="white"/>
</svg>
