<svg width="41" height="75" viewBox="0 0 41 75" fill="none" xmlns="http://www.w3.org/2000/svg">
<path d="M28.7398 12.509C28.7398 12.509 40.8498 16.7099 36.6723 19.5497C32.4948 22.3894 18.9767 58.1561 21.7695 62.8264C24.5623 67.4967 33.504 52.1246 38.5264 57.2409C43.5487 62.3571 36.1795 74.9129 28.2939 73.9742C20.4083 73.0354 16.5594 65.1499 18.5073 55.3633C20.4553 45.5767 26.8858 29.7821 27.8949 26.5199C28.9041 23.2578 25.1021 21.4037 19.5165 24.6659C13.9309 27.9281 4.16778 22.319 1.37497 16.2875C-1.41784 10.2559 0.905598 -3.4326e-06 0.905598 -3.4326e-06C0.905598 -3.4326e-06 -0.948456 5.11623 8.34526 7.43966C17.639 9.76309 25.4307 11.1243 28.7398 12.509Z" fill="white"/>
</svg>
